<?xml version="1.0" encoding="UTF-8"?>
<svg xmlns="http://www.w3.org/2000/svg" xmlns:xlink="http://www.w3.org/1999/xlink" width="16px" height="16px" viewBox="0 0 16 16" version="1.1">
<g id="surface2042">
<path style=" stroke:none;fill-rule:nonzero;fill:rgb(96.078432%,76.078433%,6.666667%);fill-opacity:1;" d="M 8 3 C 5.238281 3 3 5.238281 3 8 C 3 10.761719 5.238281 13 8 13 C 10.761719 13 13 10.761719 13 8 C 13 5.238281 10.761719 3 8 3 Z M 5.320312 7.316406 C 5.589844 7.3125 5.847656 7.417969 6.039062 7.609375 C 6.230469 7.800781 6.335938 8.0625 6.332031 8.332031 C 6.332031 8.929688 6.648438 9.476562 7.167969 9.777344 C 7.683594 10.074219 8.316406 10.074219 8.832031 9.777344 C 9.351562 9.476562 9.667969 8.929688 9.667969 8.332031 C 9.660156 7.972656 9.851562 7.636719 10.160156 7.453125 C 10.472656 7.273438 10.859375 7.273438 11.171875 7.453125 C 11.480469 7.636719 11.671875 7.972656 11.667969 8.332031 C 11.667969 9.640625 10.96875 10.855469 9.832031 11.507812 C 8.699219 12.160156 7.300781 12.160156 6.167969 11.507812 C 5.03125 10.855469 4.332031 9.640625 4.332031 8.332031 C 4.328125 7.78125 4.765625 7.328125 5.320312 7.316406 Z M 5.320312 7.316406 "/>
<path style=" stroke:none;fill-rule:nonzero;fill:rgb(96.078432%,76.078433%,6.666667%);fill-opacity:1;" d="M 10 2 L 8 0 L 6 2 "/>
<path style=" stroke:none;fill-rule:nonzero;fill:rgb(96.078432%,76.078433%,6.666667%);fill-opacity:1;" d="M 14 10 L 16 8 L 14 6 "/>
<path style=" stroke:none;fill-rule:nonzero;fill:rgb(96.078432%,76.078433%,6.666667%);fill-opacity:1;" d="M 2 6 L 0 8 L 2 10 "/>
<path style=" stroke:none;fill-rule:nonzero;fill:rgb(96.078432%,76.078433%,6.666667%);fill-opacity:1;" d="M 6 14 L 8 16 L 10 14 "/>
<path style=" stroke:none;fill-rule:nonzero;fill:rgb(96.078432%,76.078433%,6.666667%);fill-opacity:1;" d="M 4.828125 2 L 2 2 L 2 4.828125 "/>
<path style=" stroke:none;fill-rule:nonzero;fill:rgb(96.078432%,76.078433%,6.666667%);fill-opacity:1;" d="M 14 4.828125 L 14 2 L 11.171875 2 "/>
<path style=" stroke:none;fill-rule:nonzero;fill:rgb(96.078432%,76.078433%,6.666667%);fill-opacity:1;" d="M 11.171875 14 L 14 14 L 14 11.171875 "/>
<path style=" stroke:none;fill-rule:nonzero;fill:rgb(96.078432%,76.078433%,6.666667%);fill-opacity:1;" d="M 2 11.171875 L 2 14 L 4.828125 14 "/>
</g>
</svg>
