<?xml version="1.0" encoding="UTF-8"?>
<svg xmlns="http://www.w3.org/2000/svg" xmlns:xlink="http://www.w3.org/1999/xlink" width="128px" height="128px" viewBox="0 0 128 128" version="1.1">
<defs>
<radialGradient id="radial0" gradientUnits="userSpaceOnUse" cx="76.294678" cy="182.000916" fx="76.294678" fy="182.000916" r="53.861046" gradientTransform="matrix(0.000000106747,1.188243,-0.816931,0.0000000733895,212.682114,-50.656593)">
<stop offset="0" style="stop-color:rgb(100%,100%,77.254903%);stop-opacity:1;"/>
<stop offset="1" style="stop-color:rgb(100%,100%,23.921569%);stop-opacity:1;"/>
</radialGradient>
</defs>
<g id="surface1972">
<path style=" stroke:none;fill-rule:nonzero;fill:rgb(21.176471%,21.176471%,91.764706%);fill-opacity:1;" d="M 36 32 L 64 4 L 92 32 Z M 36 32 "/>
<path style=" stroke:none;fill-rule:nonzero;fill:rgb(21.176471%,21.176471%,91.764706%);fill-opacity:1;" d="M 25 72.484375 L 25 103 L 55.515625 103 Z M 25 72.484375 "/>
<path style=" stroke:none;fill-rule:nonzero;fill:rgb(21.176471%,21.176471%,91.764706%);fill-opacity:1;" d="M 100 40 L 124 64 L 100 88 Z M 100 40 "/>
<path style=" stroke:none;fill-rule:nonzero;fill:rgb(21.176471%,21.176471%,91.764706%);fill-opacity:1;" d="M 25 61.171875 L 25 25 L 61.171875 25 Z M 25 61.171875 "/>
<path style=" stroke:none;fill-rule:nonzero;fill:rgb(21.176471%,21.176471%,91.764706%);fill-opacity:1;" d="M 72.484375 25 L 103 25 L 103 55.515625 Z M 72.484375 25 "/>
<path style=" stroke:none;fill-rule:nonzero;fill:rgb(21.176471%,21.176471%,91.764706%);fill-opacity:1;" d="M 39 99 L 64 124 L 90 98 Z M 39 99 "/>
<path style=" stroke:none;fill-rule:nonzero;fill:rgb(21.176471%,21.176471%,91.764706%);fill-opacity:1;" d="M 71.070312 103 L 103.132812 103 L 103.132812 69.65625 Z M 71.070312 103 "/>
<path style=" stroke:none;fill-rule:nonzero;fill:rgb(21.176471%,21.176471%,91.764706%);fill-opacity:1;" d="M 28 88 L 4 64 L 28 40 Z M 28 88 "/>
<path style=" stroke:none;fill-rule:nonzero;fill:url(#radial0);" d="M 108 64 C 108 88.300781 88.300781 108 64 108 C 39.699219 108 20 88.300781 20 64 C 20 39.699219 39.699219 20 64 20 C 88.300781 20 108 39.699219 108 64 Z M 108 64 "/>
<path style="fill:none;stroke-width:8;stroke-linecap:round;stroke-linejoin:round;stroke:rgb(21.176471%,21.176471%,91.764706%);stroke-opacity:1;stroke-miterlimit:4;" d="M 93.417969 236 C 93.417969 246.480469 88 256.164062 79.207031 261.402344 C 70.417969 266.644531 59.582031 266.644531 50.792969 261.402344 C 42 256.164062 36.582031 246.480469 36.582031 236 " transform="matrix(1,0,0,1,0,-172)"/>
</g>
</svg>
