<?xml version="1.0" encoding="UTF-8"?>
<svg xmlns="http://www.w3.org/2000/svg" xmlns:xlink="http://www.w3.org/1999/xlink" width="128px" height="128px" viewBox="0 0 128 128" version="1.1">
<defs>
<linearGradient id="linear0" gradientUnits="userSpaceOnUse" x1="384" y1="120" x2="416" y2="120" gradientTransform="matrix(0.25,0,0,0.25,12.00001,49)">
<stop offset="0" style="stop-color:rgb(90.980393%,90.588236%,89.411765%);stop-opacity:1;"/>
<stop offset="0.511049" style="stop-color:rgb(100%,100%,100%);stop-opacity:1;"/>
<stop offset="1" style="stop-color:rgb(76.078433%,74.901962%,72.941178%);stop-opacity:1;"/>
</linearGradient>
<linearGradient id="linear1" gradientUnits="userSpaceOnUse" x1="64.000008" y1="202.384827" x2="64.000008" y2="444.5" gradientTransform="matrix(1,0,0,1,0,-172)">
<stop offset="0" style="stop-color:rgb(75.294119%,74.901962%,73.725492%);stop-opacity:1;"/>
<stop offset="1" style="stop-color:rgb(81.960785%,81.568629%,80.784315%);stop-opacity:1;"/>
</linearGradient>
<filter id="alpha" filterUnits="objectBoundingBox" x="0%" y="0%" width="100%" height="100%">
  <feColorMatrix type="matrix" in="SourceGraphic" values="0 0 0 0 1 0 0 0 0 1 0 0 0 0 1 0 0 0 1 0"/>
</filter>
<mask id="mask0">
  <g filter="url(#alpha)">
<rect x="0" y="0" width="128" height="128" style="fill:rgb(0%,0%,0%);fill-opacity:0.15;stroke:none;"/>
  </g>
</mask>
<clipPath id="clip1">
  <rect x="0" y="0" width="192" height="152"/>
</clipPath>
<g id="surface6162" clip-path="url(#clip1)">
<path style=" stroke:none;fill-rule:nonzero;fill:rgb(100%,100%,100%);fill-opacity:1;" d="M 22 28 L 24 28 L 24 122 L 22 122 Z M 22 28 "/>
</g>
</defs>
<g id="surface6138">
<path style=" stroke:none;fill-rule:nonzero;fill:rgb(60.392159%,60.000002%,58.823532%);fill-opacity:1;" d="M 12 32 L 12 116 L 108 116 C 112.433594 116 116 112.433594 116 108 L 116 40 C 116 35.566406 112.433594 32 108 32 Z M 12 32 "/>
<path style=" stroke:none;fill-rule:nonzero;fill:url(#linear0);" d="M 14 44 L 14 114 L 108 114 C 112.433594 114 116 110.433594 116 106 L 116 52 C 116 47.566406 112.433594 44 108 44 Z M 14 44 "/>
<path style=" stroke:none;fill-rule:nonzero;fill:rgb(60.392159%,60.000002%,58.823532%);fill-opacity:1;" d="M 12 14 L 12 108 L 108 108 C 112.433594 108 116 104.433594 116 100 L 116 22 C 116 17.566406 112.433594 14 108 14 Z M 12 14 "/>
<path style=" stroke:none;fill-rule:nonzero;fill:url(#linear1);" d="M 12 12 L 12 106 L 108 106 C 112.433594 106 116 102.433594 116 98 L 116 20 C 116 15.566406 112.433594 12 108 12 Z M 12 12 "/>
<path style=" stroke:none;fill-rule:nonzero;fill:rgb(23.921569%,21.960784%,27.450982%);fill-opacity:1;" d="M 12 12 L 20 12 L 20 106 L 12 106 Z M 12 12 "/>
<path style=" stroke:none;fill-rule:nonzero;fill:rgb(14.117648%,12.156863%,19.215687%);fill-opacity:1;" d="M 12 106 L 12 116 L 20 116 L 20 114 L 14 114 L 14 108 L 20 108 L 20 106 Z M 12 106 "/>
<path style="fill:none;stroke-width:6;stroke-linecap:round;stroke-linejoin:round;stroke:rgb(100%,100%,100%);stroke-opacity:1;stroke-miterlimit:4;" d="M 47 213 L 85.027344 213 L 85.027344 251.027344 L 47 251.027344 Z M 47 213 " transform="matrix(1,0,0,1,0,-172)"/>
<path style=" stroke:none;fill-rule:nonzero;fill:rgb(100%,100%,100%);fill-opacity:1;" d="M 58 52 L 74 52 L 74 68 L 58 68 Z M 58 52 "/>
<path style=" stroke:none;fill-rule:nonzero;fill:rgb(100%,100%,100%);fill-opacity:1;" d="M 47 57.472656 L 47 62.527344 C 47 63.339844 46.339844 64 45.527344 64 L 39.472656 64 C 38.660156 64 38 63.339844 38 62.527344 L 38 57.472656 C 38 56.660156 38.660156 56 39.472656 56 L 45.527344 56 C 46.339844 56 47 56.660156 47 57.472656 Z M 47 57.472656 "/>
<use xlink:href="#surface6162" transform="matrix(1,0,0,1,-8,-16)" mask="url(#mask0)"/>
<path style=" stroke:none;fill-rule:nonzero;fill:rgb(100%,100%,100%);fill-opacity:1;" d="M 47 45.472656 L 47 50.527344 C 47 51.339844 46.339844 52 45.527344 52 L 39.472656 52 C 38.660156 52 38 51.339844 38 50.527344 L 38 45.472656 C 38 44.660156 38.660156 44 39.472656 44 L 45.527344 44 C 46.339844 44 47 44.660156 47 45.472656 Z M 47 45.472656 "/>
<path style=" stroke:none;fill-rule:nonzero;fill:rgb(100%,100%,100%);fill-opacity:1;" d="M 47 69.472656 L 47 74.527344 C 47 75.339844 46.339844 76 45.527344 76 L 39.472656 76 C 38.660156 76 38 75.339844 38 74.527344 L 38 69.472656 C 38 68.660156 38.660156 68 39.472656 68 L 45.527344 68 C 46.339844 68 47 68.660156 47 69.472656 Z M 47 69.472656 "/>
<path style=" stroke:none;fill-rule:nonzero;fill:rgb(100%,100%,100%);fill-opacity:1;" d="M 94 57.308594 L 94 62.691406 C 94 63.414062 93.414062 64 92.691406 64 L 87.308594 64 C 86.585938 64 86 63.414062 86 62.691406 L 86 57.308594 C 86 56.585938 86.585938 56 87.308594 56 L 92.691406 56 C 93.414062 56 94 56.585938 94 57.308594 Z M 94 57.308594 "/>
<path style=" stroke:none;fill-rule:nonzero;fill:rgb(100%,100%,100%);fill-opacity:1;" d="M 94 45.308594 L 94 50.691406 C 94 51.414062 93.414062 52 92.691406 52 L 87.308594 52 C 86.585938 52 86 51.414062 86 50.691406 L 86 45.308594 C 86 44.585938 86.585938 44 87.308594 44 L 92.691406 44 C 93.414062 44 94 44.585938 94 45.308594 Z M 94 45.308594 "/>
<path style=" stroke:none;fill-rule:nonzero;fill:rgb(100%,100%,100%);fill-opacity:1;" d="M 94 69.308594 L 94 74.691406 C 94 75.414062 93.414062 76 92.691406 76 L 87.308594 76 C 86.585938 76 86 75.414062 86 74.691406 L 86 69.308594 C 86 68.585938 86.585938 68 87.308594 68 L 92.691406 68 C 93.414062 68 94 68.585938 94 69.308594 Z M 94 69.308594 "/>
<path style=" stroke:none;fill-rule:nonzero;fill:rgb(100%,100%,100%);fill-opacity:1;" d="M 63.472656 32 L 68.527344 32 C 69.339844 32 70 32.660156 70 33.472656 L 70 39.527344 C 70 40.339844 69.339844 41 68.527344 41 L 63.472656 41 C 62.660156 41 62 40.339844 62 39.527344 L 62 33.472656 C 62 32.660156 62.660156 32 63.472656 32 Z M 63.472656 32 "/>
<path style=" stroke:none;fill-rule:nonzero;fill:rgb(100%,100%,100%);fill-opacity:1;" d="M 51.472656 32 L 56.527344 32 C 57.339844 32 58 32.660156 58 33.472656 L 58 39.527344 C 58 40.339844 57.339844 41 56.527344 41 L 51.472656 41 C 50.660156 41 50 40.339844 50 39.527344 L 50 33.472656 C 50 32.660156 50.660156 32 51.472656 32 Z M 51.472656 32 "/>
<path style=" stroke:none;fill-rule:nonzero;fill:rgb(100%,100%,100%);fill-opacity:1;" d="M 75.472656 32 L 80.527344 32 C 81.339844 32 82 32.660156 82 33.472656 L 82 39.527344 C 82 40.339844 81.339844 41 80.527344 41 L 75.472656 41 C 74.660156 41 74 40.339844 74 39.527344 L 74 33.472656 C 74 32.660156 74.660156 32 75.472656 32 Z M 75.472656 32 "/>
<path style=" stroke:none;fill-rule:nonzero;fill:rgb(100%,100%,100%);fill-opacity:1;" d="M 63.636719 78 L 68.363281 78 C 69.265625 78 70 78.734375 70 79.636719 L 70 86.363281 C 70 87.265625 69.265625 88 68.363281 88 L 63.636719 88 C 62.734375 88 62 87.265625 62 86.363281 L 62 79.636719 C 62 78.734375 62.734375 78 63.636719 78 Z M 63.636719 78 "/>
<path style=" stroke:none;fill-rule:nonzero;fill:rgb(100%,100%,100%);fill-opacity:1;" d="M 51.636719 78 L 56.363281 78 C 57.265625 78 58 78.734375 58 79.636719 L 58 86.363281 C 58 87.265625 57.265625 88 56.363281 88 L 51.636719 88 C 50.734375 88 50 87.265625 50 86.363281 L 50 79.636719 C 50 78.734375 50.734375 78 51.636719 78 Z M 51.636719 78 "/>
<path style=" stroke:none;fill-rule:nonzero;fill:rgb(100%,100%,100%);fill-opacity:1;" d="M 75.636719 78 L 80.363281 78 C 81.265625 78 82 78.734375 82 79.636719 L 82 86.363281 C 82 87.265625 81.265625 88 80.363281 88 L 75.636719 88 C 74.734375 88 74 87.265625 74 86.363281 L 74 79.636719 C 74 78.734375 74.734375 78 75.636719 78 Z M 75.636719 78 "/>
<path style=" stroke:none;fill-rule:nonzero;fill:rgb(0%,0%,0%);fill-opacity:0.298039;" d="M 51.472656 28 C 50.65625 28 50 28.65625 50 29.472656 L 50 33.472656 C 50 32.65625 50.65625 32 51.472656 32 L 56.527344 32 C 57.34375 32 58 32.65625 58 33.472656 L 58 29.472656 C 58 28.65625 57.34375 28 56.527344 28 Z M 63.472656 28 C 62.65625 28 62 28.65625 62 29.472656 L 62 33.472656 C 62 32.65625 62.65625 32 63.472656 32 L 68.527344 32 C 69.34375 32 70 32.65625 70 33.472656 L 70 29.472656 C 70 28.65625 69.34375 28 68.527344 28 Z M 75.472656 28 C 74.65625 28 74 28.65625 74 29.472656 L 74 33.472656 C 74 32.65625 74.65625 32 75.472656 32 L 80.527344 32 C 81.34375 32 82 32.65625 82 33.472656 L 82 29.472656 C 82 28.65625 81.34375 28 80.527344 28 Z M 47 34 C 45.34375 34 44 35.34375 44 37 L 44 40 L 39.472656 40 C 38.65625 40 38 40.65625 38 41.472656 L 38 45.472656 C 38 44.65625 38.65625 44 39.472656 44 L 44 44 L 44 41 C 44 39.34375 45.34375 38 47 38 L 50 38 L 50 34 Z M 58 34 L 58 38 L 62 38 L 62 34 Z M 70 34 L 70 38 L 74 38 L 74 34 Z M 82 34 L 82 38 L 85.03125 38 C 86.6875 38 88.027344 39.34375 88.03125 41 L 88.03125 44 L 92.691406 44 C 93.417969 44 94 44.582031 94 45.308594 L 94 41.308594 C 94 40.582031 93.417969 40 92.691406 40 L 88.03125 40 L 88.03125 37 C 88.027344 35.34375 86.6875 34 85.03125 34 Z M 58 48 L 58 52 L 74 52 L 74 48 Z M 39.472656 52 C 38.65625 52 38 52.65625 38 53.472656 L 38 57.472656 C 38 56.65625 38.65625 56 39.472656 56 L 44 56 L 44 52 Z M 88.03125 52 L 88.03125 56 L 92.691406 56 C 93.417969 56 94 56.582031 94 57.308594 L 94 53.308594 C 94 52.582031 93.417969 52 92.691406 52 Z M 39.472656 64 C 38.65625 64 38 64.65625 38 65.472656 L 38 69.472656 C 38 68.65625 38.65625 68 39.472656 68 L 44 68 L 44 64 Z M 88.03125 64 L 88.03125 68 L 92.691406 68 C 93.417969 68 94 68.582031 94 69.308594 L 94 65.308594 C 94 64.582031 93.417969 64 92.691406 64 Z M 50 72.03125 L 50 76.03125 L 82.03125 76.03125 L 82.03125 72.03125 Z M 50 72.03125 "/>
</g>
</svg>
